<svg width="128" height="128" xmlns="http://www.w3.org/2000/svg" xmlns:svg="http://www.w3.org/2000/svg">
 <g>
  <title>background</title>
  <rect x="-1" y="-1" width="582" height="402" id="canvas_background" fill="none"/>
 </g>
 <g>
  <title>Layer 1</title>
  <g transform="rotate(-1.13533 59.5133 71.3619)" stroke="null" id="svg_9">
   <polygon stroke="null" fill="#545454" points="102.49074327871914,62.21784452622114 103.33427179548772,58.582986145500286 103.18056185903377,58.418009296012286 68.5902358591872,88.51690706482282 71.83809852689157,120.05725840636822 89.67007810817576,117.59353704837915 " id="svg_3" stroke-width="0.75"/>
   <polygon stroke="null" fill="#686868" points="74.60040783271339,27.406432395728384 74.21111573270463,26.988605248885126 70.55833163460741,27.404494202063884 11.719909252413764,33.92963570544485 7.321803384177471,50.81193150778846 40.1706900089316,57.365576376955914 " id="svg_4" stroke-width="0.75"/>
   <polygon stroke="null" fill="#9C9C9C" points="84.68172109955631,46.31020508930225 93.3296671328315,24.846037858438173 73.64393601682707,26.950420104637153 38.912785956658226,57.171856440879715 " id="svg_5" stroke-width="0.75"/>
   <polygon stroke="null" fill="#686868" points="68.59384706648835,89.02850996278156 103.31429197014518,58.816388757349145 107.50591997176873,40.59775909952316 84.54844766447717,46.26217609107829 " id="svg_6" stroke-width="0.75"/>
   <polygon stroke="null" fill="#828282" points="84.69921838582508,46.2433869753757 38.912795424670264,57.171855133087476 38.887346593278835,57.19399952612933 39.1352670786096,58.34082144335058 44.29487169773586,81.34090205923448 44.335683944974754,81.36586303207449 44.34457793389834,81.35812389531787 67.40355837806929,88.68117384074438 68.5683814080115,89.0506493058603 68.59383023940293,89.02850491281845 " id="svg_7" stroke-width="0.75"/>
   <polygon stroke="null" fill="#828282" points="111.6792501138259,22.766618613289594 111.68914602524522,22.75800765003528 111.70487982669772,22.666526137909116 93.32969273687523,24.846026722353187 84.60529272723835,46.325120940779826 107.50592698781114,40.597737514909625 " id="svg_8" stroke-width="0.75"/>
  </g>
 </g>
</svg>
